<?xml version="1.0" encoding="UTF-8" standalone="no"?>
<!DOCTYPE svg PUBLIC "-//W3C//DTD SVG 1.1//EN"
 "http://www.w3.org/Graphics/SVG/1.1/DTD/svg11.dtd">
<!-- Generated by graphviz version 2.34.0 (20130916.1648)
 -->
<!-- Title: controllers_diagram Pages: 1 -->
<svg width="695pt" height="548pt"
 viewBox="0.00 0.00 695.38 548.34" xmlns="http://www.w3.org/2000/svg" xmlns:xlink="http://www.w3.org/1999/xlink">
<g id="graph0" class="graph" transform="scale(1 1) rotate(0) translate(4 544.336)">
<title>controllers_diagram</title>
<polygon fill="white" stroke="white" points="-4,4 -4,-544.336 691.375,-544.336 691.375,4 -4,4"/>
<!-- _diagram_info -->
<g id="node1" class="node"><title>_diagram_info</title>
<text text-anchor="start" x="488" y="-349" font-family="Times,serif" font-size="13.00">Controllers diagram</text>
<text text-anchor="start" x="488" y="-333.4" font-family="Times,serif" font-size="13.00">Date: Oct 17 2013 &#45; 10:09</text>
<text text-anchor="start" x="488" y="-317.8" font-family="Times,serif" font-size="13.00">Migration version: 20131016213704</text>
<text text-anchor="start" x="488" y="-302.2" font-family="Times,serif" font-size="13.00">Generated by RailRoady 1.1.1</text>
<text text-anchor="start" x="488" y="-286.6" font-family="Times,serif" font-size="13.00">http://railroady.prestonlee.com</text>
</g>
<!-- ApplicationController -->
<g id="node2" class="node"><title>ApplicationController</title>
<path fill="none" stroke="black" d="M12,-95.0654C12,-95.0654 190.635,-95.0654 190.635,-95.0654 196.635,-95.0654 202.635,-101.065 202.635,-107.065 202.635,-107.065 202.635,-198.265 202.635,-198.265 202.635,-204.265 196.635,-210.265 190.635,-210.265 190.635,-210.265 12,-210.265 12,-210.265 6,-210.265 2.84217e-14,-204.265 2.84217e-14,-198.265 2.84217e-14,-198.265 2.84217e-14,-107.065 2.84217e-14,-107.065 2.84217e-14,-101.065 6,-95.0654 12,-95.0654"/>
<text text-anchor="middle" x="101.317" y="-192.265" font-family="Times,serif" font-size="14.00">ApplicationController</text>
<polyline fill="none" stroke="black" points="2.84217e-14,-185.465 202.635,-185.465 "/>
<text text-anchor="start" x="8" y="-167.465" font-family="Times,serif" font-size="14.00">_one_time_conditions_valid_50?</text>
<polyline fill="none" stroke="black" points="2.84217e-14,-160.665 202.635,-160.665 "/>
<polyline fill="none" stroke="black" points="2.84217e-14,-136.665 202.635,-136.665 "/>
<text text-anchor="start" x="8" y="-118.665" font-family="Times,serif" font-size="14.00">_layout</text>
<text text-anchor="start" x="8" y="-101.865" font-family="Times,serif" font-size="14.00">user_not_authorized</text>
</g>
<!-- HomeController -->
<g id="node3" class="node"><title>HomeController</title>
<path fill="none" stroke="black" d="M313.35,-358.774C313.35,-358.774 397.109,-358.774 397.109,-358.774 403.109,-358.774 409.109,-364.774 409.109,-370.774 409.109,-370.774 409.109,-445.174 409.109,-445.174 409.109,-451.174 403.109,-457.174 397.109,-457.174 397.109,-457.174 313.35,-457.174 313.35,-457.174 307.35,-457.174 301.35,-451.174 301.35,-445.174 301.35,-445.174 301.35,-370.774 301.35,-370.774 301.35,-364.774 307.35,-358.774 313.35,-358.774"/>
<text text-anchor="middle" x="355.229" y="-439.174" font-family="Times,serif" font-size="14.00">HomeController</text>
<polyline fill="none" stroke="black" points="301.35,-432.374 409.109,-432.374 "/>
<text text-anchor="start" x="309.35" y="-414.374" font-family="Times,serif" font-size="14.00">index</text>
<polyline fill="none" stroke="black" points="301.35,-407.574 409.109,-407.574 "/>
<polyline fill="none" stroke="black" points="301.35,-383.574 409.109,-383.574 "/>
<text text-anchor="start" x="309.35" y="-365.574" font-family="Times,serif" font-size="14.00">_layout</text>
</g>
<!-- ApplicationController&#45;&gt;HomeController -->
<g id="edge1" class="edge"><title>ApplicationController&#45;&gt;HomeController</title>
<path fill="none" stroke="black" d="M158.617,-210.28C201.779,-253.68 260.5,-312.724 302.506,-354.961"/>
<polyline fill="none" stroke="black" points="306.263,-358.739 302.737,-355.194 "/>
</g>
<!-- PostsController -->
<g id="node4" class="node"><title>PostsController</title>
<path fill="none" stroke="black" d="M242.443,-0.5C242.443,-0.5 421.077,-0.5 421.077,-0.5 427.077,-0.5 433.077,-6.5 433.077,-12.5 433.077,-12.5 433.077,-204.5 433.077,-204.5 433.077,-210.5 427.077,-216.5 421.077,-216.5 421.077,-216.5 242.443,-216.5 242.443,-216.5 236.443,-216.5 230.443,-210.5 230.443,-204.5 230.443,-204.5 230.443,-12.5 230.443,-12.5 230.443,-6.5 236.443,-0.5 242.443,-0.5"/>
<text text-anchor="middle" x="331.76" y="-198.5" font-family="Times,serif" font-size="14.00">PostsController</text>
<polyline fill="none" stroke="black" points="230.443,-191.7 433.077,-191.7 "/>
<text text-anchor="start" x="238.443" y="-173.7" font-family="Times,serif" font-size="14.00">_one_time_conditions_valid_54?</text>
<text text-anchor="start" x="238.443" y="-156.9" font-family="Times,serif" font-size="14.00">create</text>
<text text-anchor="start" x="238.443" y="-140.1" font-family="Times,serif" font-size="14.00">destroy</text>
<text text-anchor="start" x="238.443" y="-123.3" font-family="Times,serif" font-size="14.00">edit</text>
<text text-anchor="start" x="238.443" y="-106.5" font-family="Times,serif" font-size="14.00">index</text>
<text text-anchor="start" x="238.443" y="-89.7" font-family="Times,serif" font-size="14.00">new</text>
<text text-anchor="start" x="238.443" y="-72.9" font-family="Times,serif" font-size="14.00">show</text>
<text text-anchor="start" x="238.443" y="-56.1" font-family="Times,serif" font-size="14.00">update</text>
<polyline fill="none" stroke="black" points="230.443,-49.3 433.077,-49.3 "/>
<polyline fill="none" stroke="black" points="230.443,-25.3 433.077,-25.3 "/>
<text text-anchor="start" x="238.443" y="-7.3" font-family="Times,serif" font-size="14.00">_layout</text>
</g>
<!-- ApplicationController&#45;&gt;PostsController -->
<g id="edge2" class="edge"><title>ApplicationController&#45;&gt;PostsController</title>
<path fill="none" stroke="black" d="M202.728,-133.23C210.185,-131.8 217.719,-130.356 225.205,-128.922"/>
<polyline fill="none" stroke="black" points="230.378,-127.93 225.467,-128.872 "/>
</g>
<!-- ProjectsController -->
<g id="node5" class="node"><title>ProjectsController</title>
<path fill="none" stroke="black" d="M75.6989,-357.436C75.6989,-357.436 170.347,-357.436 170.347,-357.436 176.347,-357.436 182.347,-363.436 182.347,-369.436 182.347,-369.436 182.347,-527.836 182.347,-527.836 182.347,-533.836 176.347,-539.836 170.347,-539.836 170.347,-539.836 75.6989,-539.836 75.6989,-539.836 69.6989,-539.836 63.6989,-533.836 63.6989,-527.836 63.6989,-527.836 63.6989,-369.436 63.6989,-369.436 63.6989,-363.436 69.6989,-357.436 75.6989,-357.436"/>
<text text-anchor="middle" x="123.023" y="-521.836" font-family="Times,serif" font-size="14.00">ProjectsController</text>
<polyline fill="none" stroke="black" points="63.6989,-515.036 182.347,-515.036 "/>
<text text-anchor="start" x="71.6989" y="-497.036" font-family="Times,serif" font-size="14.00">create</text>
<text text-anchor="start" x="71.6989" y="-480.236" font-family="Times,serif" font-size="14.00">edit</text>
<text text-anchor="start" x="71.6989" y="-463.436" font-family="Times,serif" font-size="14.00">index</text>
<text text-anchor="start" x="71.6989" y="-446.636" font-family="Times,serif" font-size="14.00">new</text>
<text text-anchor="start" x="71.6989" y="-429.836" font-family="Times,serif" font-size="14.00">show</text>
<text text-anchor="start" x="71.6989" y="-413.036" font-family="Times,serif" font-size="14.00">update</text>
<polyline fill="none" stroke="black" points="63.6989,-406.236 182.347,-406.236 "/>
<polyline fill="none" stroke="black" points="63.6989,-382.236 182.347,-382.236 "/>
<text text-anchor="start" x="71.6989" y="-364.236" font-family="Times,serif" font-size="14.00">_layout</text>
</g>
<!-- ApplicationController&#45;&gt;ProjectsController -->
<g id="edge3" class="edge"><title>ApplicationController&#45;&gt;ProjectsController</title>
<path fill="none" stroke="black" d="M105.554,-210.434C108.506,-250.688 112.514,-305.343 115.947,-352.147"/>
<polyline fill="none" stroke="black" points="116.32,-357.231 115.954,-352.244 "/>
</g>
</g>
</svg>
