<?xml version="1.0" encoding="UTF-8" standalone="no"?>
<!DOCTYPE svg PUBLIC "-//W3C//DTD SVG 1.1//EN"
 "http://www.w3.org/Graphics/SVG/1.1/DTD/svg11.dtd">
<!-- Generated by graphviz version 2.34.0 (20130916.1648)
 -->
<!-- Title: models_diagram Pages: 1 -->
<svg width="623pt" height="604pt"
 viewBox="0.00 0.00 623.00 604.00" xmlns="http://www.w3.org/2000/svg" xmlns:xlink="http://www.w3.org/1999/xlink">
<g id="graph0" class="graph" transform="scale(1 1) rotate(0) translate(4 600)">
<title>models_diagram</title>
<polygon fill="white" stroke="white" points="-4,4 -4,-600 619,-600 619,4 -4,4"/>
<!-- _diagram_info -->
<g id="node1" class="node"><title>_diagram_info</title>
<text text-anchor="start" x="7.31226" y="-579" font-family="Times,serif" font-size="13.00">Models diagram</text>
<text text-anchor="start" x="7.31226" y="-563.4" font-family="Times,serif" font-size="13.00">Date: Oct 17 2013 &#45; 10:09</text>
<text text-anchor="start" x="7.31226" y="-547.8" font-family="Times,serif" font-size="13.00">Migration version: 20131016213704</text>
<text text-anchor="start" x="7.31226" y="-532.2" font-family="Times,serif" font-size="13.00">Generated by RailRoady 1.1.1</text>
<text text-anchor="start" x="7.31226" y="-516.6" font-family="Times,serif" font-size="13.00">http://railroady.prestonlee.com</text>
</g>
<!-- Post -->
<g id="node2" class="node"><title>Post</title>
<path fill="none" stroke="black" d="M304.495,-0.8C304.495,-0.8 413.505,-0.8 413.505,-0.8 419.505,-0.8 425.505,-6.8 425.505,-12.8 425.505,-12.8 425.505,-139.2 425.505,-139.2 425.505,-145.2 419.505,-151.2 413.505,-151.2 413.505,-151.2 304.495,-151.2 304.495,-151.2 298.495,-151.2 292.495,-145.2 292.495,-139.2 292.495,-139.2 292.495,-12.8 292.495,-12.8 292.495,-6.8 298.495,-0.8 304.495,-0.8"/>
<text text-anchor="middle" x="359" y="-133.2" font-family="Times,serif" font-size="14.00">Post</text>
<polyline fill="none" stroke="black" points="292.495,-126.4 425.505,-126.4 "/>
<text text-anchor="start" x="300.495" y="-108.4" font-family="Times,serif" font-size="14.00">id :integer</text>
<text text-anchor="start" x="300.495" y="-91.6" font-family="Times,serif" font-size="14.00">title :string</text>
<text text-anchor="start" x="300.495" y="-74.8" font-family="Times,serif" font-size="14.00">body :text</text>
<text text-anchor="start" x="300.495" y="-58" font-family="Times,serif" font-size="14.00">created_at :datetime</text>
<text text-anchor="start" x="300.495" y="-41.2" font-family="Times,serif" font-size="14.00">updated_at :datetime</text>
<text text-anchor="start" x="300.495" y="-24.4" font-family="Times,serif" font-size="14.00">author_id :integer</text>
<text text-anchor="start" x="300.495" y="-7.6" font-family="Times,serif" font-size="14.00">published :boolean</text>
</g>
<!-- Project -->
<g id="node3" class="node"><title>Project</title>
<path fill="none" stroke="black" d="M245.65,-272.6C245.65,-272.6 380.35,-272.6 380.35,-272.6 386.35,-272.6 392.35,-278.6 392.35,-284.6 392.35,-284.6 392.35,-377.4 392.35,-377.4 392.35,-383.4 386.35,-389.4 380.35,-389.4 380.35,-389.4 245.65,-389.4 245.65,-389.4 239.65,-389.4 233.65,-383.4 233.65,-377.4 233.65,-377.4 233.65,-284.6 233.65,-284.6 233.65,-278.6 239.65,-272.6 245.65,-272.6"/>
<text text-anchor="middle" x="313" y="-371.4" font-family="Times,serif" font-size="14.00">Project</text>
<polyline fill="none" stroke="black" points="233.65,-364.6 392.35,-364.6 "/>
<text text-anchor="start" x="241.65" y="-346.6" font-family="Times,serif" font-size="14.00">id :integer</text>
<text text-anchor="start" x="241.65" y="-329.8" font-family="Times,serif" font-size="14.00">name :string</text>
<text text-anchor="start" x="241.65" y="-313" font-family="Times,serif" font-size="14.00">technologies_used :string</text>
<text text-anchor="start" x="241.65" y="-296.2" font-family="Times,serif" font-size="14.00">created_at :datetime</text>
<text text-anchor="start" x="241.65" y="-279.4" font-family="Times,serif" font-size="14.00">updated_at :datetime</text>
</g>
<!-- User -->
<g id="node4" class="node"><title>User</title>
<path fill="none" stroke="black" d="M422.722,-188.6C422.722,-188.6 603.278,-188.6 603.278,-188.6 609.278,-188.6 615.278,-194.6 615.278,-200.6 615.278,-200.6 615.278,-461.4 615.278,-461.4 615.278,-467.4 609.278,-473.4 603.278,-473.4 603.278,-473.4 422.722,-473.4 422.722,-473.4 416.722,-473.4 410.722,-467.4 410.722,-461.4 410.722,-461.4 410.722,-200.6 410.722,-200.6 410.722,-194.6 416.722,-188.6 422.722,-188.6"/>
<text text-anchor="middle" x="513" y="-455.4" font-family="Times,serif" font-size="14.00">User</text>
<polyline fill="none" stroke="black" points="410.722,-448.6 615.278,-448.6 "/>
<text text-anchor="start" x="418.722" y="-430.6" font-family="Times,serif" font-size="14.00">id :integer</text>
<text text-anchor="start" x="418.722" y="-413.8" font-family="Times,serif" font-size="14.00">name :string</text>
<text text-anchor="start" x="418.722" y="-397" font-family="Times,serif" font-size="14.00">created_at :datetime</text>
<text text-anchor="start" x="418.722" y="-380.2" font-family="Times,serif" font-size="14.00">updated_at :datetime</text>
<text text-anchor="start" x="418.722" y="-363.4" font-family="Times,serif" font-size="14.00">email :string</text>
<text text-anchor="start" x="418.722" y="-346.6" font-family="Times,serif" font-size="14.00">encrypted_password :string</text>
<text text-anchor="start" x="418.722" y="-329.8" font-family="Times,serif" font-size="14.00">reset_password_token :string</text>
<text text-anchor="start" x="418.722" y="-313" font-family="Times,serif" font-size="14.00">reset_password_sent_at :datetime</text>
<text text-anchor="start" x="418.722" y="-296.2" font-family="Times,serif" font-size="14.00">remember_created_at :datetime</text>
<text text-anchor="start" x="418.722" y="-279.4" font-family="Times,serif" font-size="14.00">sign_in_count :integer</text>
<text text-anchor="start" x="418.722" y="-262.6" font-family="Times,serif" font-size="14.00">current_sign_in_at :datetime</text>
<text text-anchor="start" x="418.722" y="-245.8" font-family="Times,serif" font-size="14.00">last_sign_in_at :datetime</text>
<text text-anchor="start" x="418.722" y="-229" font-family="Times,serif" font-size="14.00">current_sign_in_ip :string</text>
<text text-anchor="start" x="418.722" y="-212.2" font-family="Times,serif" font-size="14.00">last_sign_in_ip :string</text>
<text text-anchor="start" x="418.722" y="-195.4" font-family="Times,serif" font-size="14.00">role :string</text>
</g>
<!-- User&#45;&gt;Post -->
<g id="edge3" class="edge"><title>User&#45;&gt;Post</title>
<path fill="none" stroke="#df7c66" d="M422.598,-181.483C418.151,-174.177 413.765,-166.972 409.503,-159.969"/>
<ellipse fill="none" stroke="#df7c66" cx="424.691" cy="-184.921" rx="4.00002" ry="4.00002"/>
<polygon fill="#df7c66" stroke="#df7c66" points="409.374,-159.758 408.019,-148.876 406.774,-155.487 404.175,-151.216 404.175,-151.216 404.175,-151.216 406.774,-155.487 400.331,-153.555 409.374,-159.758 409.374,-159.758"/>
</g>
<!-- ActiveRecord::Base -->
<g id="node5" class="node"><title>ActiveRecord::Base</title>
<ellipse fill="none" stroke="black" cx="313" cy="-553" rx="88.2033" ry="18"/>
<text text-anchor="middle" x="313" y="-547.4" font-family="Times,serif" font-size="14.00">ActiveRecord::Base</text>
</g>
<!-- ActiveRecord::Base&#45;&gt;Post -->
<g id="edge1" class="edge"><title>ActiveRecord::Base&#45;&gt;Post</title>
<path fill="none" stroke="black" d="M284.564,-535.95C263.765,-522.434 237.146,-500.996 225,-474 172.846,-358.081 170.916,-303.031 225,-188 238.487,-159.314 263.43,-135.496 288.173,-117.374"/>
<polyline fill="none" stroke="black" points="292.462,-114.286 288.404,-117.207 "/>
</g>
<!-- ActiveRecord::Base&#45;&gt;Project -->
<g id="edge2" class="edge"><title>ActiveRecord::Base&#45;&gt;Project</title>
<path fill="none" stroke="black" d="M313,-534.737C313,-504.928 313,-442.411 313,-394.632"/>
<polyline fill="none" stroke="black" points="313,-389.47 313,-394.47 "/>
</g>
<!-- ActiveRecord::Base&#45;&gt;User -->
<g id="edge4" class="edge"><title>ActiveRecord::Base&#45;&gt;User</title>
<path fill="none" stroke="black" d="M333.859,-535.31C352.311,-520.137 379.556,-496.712 401,-474 403.021,-471.86 405.044,-469.686 407.066,-467.483"/>
<polyline fill="none" stroke="black" points="410.705,-463.49 407.338,-467.186 "/>
</g>
</g>
</svg>
