<?xml version="1.0" encoding="UTF-8" standalone="no"?>
<!DOCTYPE svg PUBLIC "-//W3C//DTD SVG 1.1//EN"
 "http://www.w3.org/Graphics/SVG/1.1/DTD/svg11.dtd">
<!-- Generated by graphviz version 2.34.0 (20130916.1648)
 -->
<!-- Title: models_diagram Pages: 1 -->
<svg width="436pt" height="238pt"
 viewBox="0.00 0.00 436.00 238.00" xmlns="http://www.w3.org/2000/svg" xmlns:xlink="http://www.w3.org/1999/xlink">
<g id="graph0" class="graph" transform="scale(1 1) rotate(0) translate(4 234)">
<title>models_diagram</title>
<polygon fill="white" stroke="white" points="-4,4 -4,-234 432,-234 432,4 -4,4"/>
<!-- _diagram_info -->
<g id="node1" class="node"><title>_diagram_info</title>
<text text-anchor="start" x="7.31226" y="-213" font-family="Times,serif" font-size="13.00">Models diagram</text>
<text text-anchor="start" x="7.31226" y="-197.4" font-family="Times,serif" font-size="13.00">Date: Oct 17 2013 &#45; 10:09</text>
<text text-anchor="start" x="7.31226" y="-181.8" font-family="Times,serif" font-size="13.00">Migration version: 20131016213704</text>
<text text-anchor="start" x="7.31226" y="-166.2" font-family="Times,serif" font-size="13.00">Generated by RailRoady 1.1.1</text>
<text text-anchor="start" x="7.31226" y="-150.6" font-family="Times,serif" font-size="13.00">http://railroady.prestonlee.com</text>
</g>
<!-- Post -->
<g id="node2" class="node"><title>Post</title>
<ellipse fill="none" stroke="black" cx="323" cy="-18" rx="27.5142" ry="18"/>
<text text-anchor="middle" x="323" y="-12.4" font-family="Times,serif" font-size="14.00">Post</text>
</g>
<!-- Project -->
<g id="node3" class="node"><title>Project</title>
<ellipse fill="none" stroke="black" cx="313" cy="-90" rx="38.0859" ry="18"/>
<text text-anchor="middle" x="313" y="-84.4" font-family="Times,serif" font-size="14.00">Project</text>
</g>
<!-- User -->
<g id="node4" class="node"><title>User</title>
<ellipse fill="none" stroke="black" cx="399" cy="-90" rx="28.9087" ry="18"/>
<text text-anchor="middle" x="399" y="-84.4" font-family="Times,serif" font-size="14.00">User</text>
</g>
<!-- User&#45;&gt;Post -->
<g id="edge3" class="edge"><title>User&#45;&gt;Post</title>
<path fill="none" stroke="#4b07f5" d="M377.037,-68.771C367.216,-59.7253 355.645,-49.0675 345.735,-39.9399"/>
<ellipse fill="none" stroke="#4b07f5" cx="380.311" cy="-71.786" rx="4.00002" ry="4.00002"/>
<polygon fill="#4b07f5" stroke="#4b07f5" points="345.564,-39.7826 341.257,-29.6978 341.886,-36.3952 338.208,-33.0078 338.208,-33.0078 338.208,-33.0078 341.886,-36.3952 335.16,-36.3178 345.564,-39.7826 345.564,-39.7826"/>
</g>
<!-- ActiveRecord::Base -->
<g id="node5" class="node"><title>ActiveRecord::Base</title>
<ellipse fill="none" stroke="black" cx="313" cy="-187" rx="88.2033" ry="18"/>
<text text-anchor="middle" x="313" y="-181.4" font-family="Times,serif" font-size="14.00">ActiveRecord::Base</text>
</g>
<!-- ActiveRecord::Base&#45;&gt;Post -->
<g id="edge1" class="edge"><title>ActiveRecord::Base&#45;&gt;Post</title>
<path fill="none" stroke="black" d="M297.043,-168.915C278.182,-146.542 251.122,-106.149 266,-72 272.837,-56.3068 286.865,-43.1669 299.293,-33.8961"/>
<polyline fill="none" stroke="black" points="303.434,-30.9023 299.382,-33.8319 "/>
</g>
<!-- ActiveRecord::Base&#45;&gt;Project -->
<g id="edge2" class="edge"><title>ActiveRecord::Base&#45;&gt;Project</title>
<path fill="none" stroke="black" d="M313,-168.576C313,-153.041 313,-130.217 313,-113.345"/>
<polyline fill="none" stroke="black" points="313,-108.314 313,-113.314 "/>
</g>
<!-- ActiveRecord::Base&#45;&gt;User -->
<g id="edge4" class="edge"><title>ActiveRecord::Base&#45;&gt;User</title>
<path fill="none" stroke="black" d="M328.375,-169.016C343.467,-152.344 366.432,-126.976 382.046,-109.728"/>
<polyline fill="none" stroke="black" points="385.456,-105.961 382.1,-109.668 "/>
</g>
</g>
</svg>
